<mxfile host="Electron" modified="2024-04-03T09:27:51.140Z" agent="Mozilla/5.0 (Windows NT 10.0; Win64; x64) AppleWebKit/537.36 (KHTML, like Gecko) draw.io/24.1.0 Chrome/120.0.6099.109 Electron/28.1.0 Safari/537.36" etag="ZUaWS5loCcL-G0OvDTfn" version="24.1.0" type="device">
  <diagram name="Page-1" id="GALCYFQ5iMu0bB1tFxQZ">
    <mxGraphModel dx="1050" dy="1721" grid="1" gridSize="10" guides="1" tooltips="1" connect="1" arrows="1" fold="1" page="1" pageScale="1" pageWidth="850" pageHeight="1100" math="0" shadow="0">
      <root>
        <mxCell id="0" />
        <mxCell id="1" parent="0" />
        <mxCell id="BlBGb8jEa6n90FYuV4Tu-1" value="Child" style="shape=image;verticalLabelPosition=bottom;labelBackgroundColor=default;verticalAlign=top;aspect=fixed;imageAspect=0;image=data:image/jpeg,/9j/4AAQSkZJRgABAQAAAQABAAD/2wCEAAkGBw8NDxANDhAPEQ8QEA8PDw4QDRAQEBAQFREXFhUWFxYYHSkgGBsxGxMWITQtJSk3Li4uGSAzOD8sQyotLjABCgoKDg0OGhAQGy8mICYwKzUtLy0rLS0tNS0tLS0tLS0tLS0tLS8tLS0tLS0tLS0tLS0tLS0tLS0tLSstLS0tLf/AABEIAMgAyAMBIgACEQEDEQH/xAAbAAEAAgMBAQAAAAAAAAAAAAAABAYBBQcCA//EAEQQAAICAAIHAwkEBgkFAAAAAAABAgMEEQUGEhMhMUFRYbEUIiMyUnGBkaFCcsHRBxUzU5KyJDRUYnOT0vDxFmOCg6L/xAAbAQEAAgMBAQAAAAAAAAAAAAAABAUCAwYBB//EADARAAIBAgMECQUBAQEAAAAAAAABAgMRBCExBRJBkRMiMlFhcYGx8BShwdHhQvEj/9oADAMBAAIRAxEAPwDuIAAAAAAAAAAAAAAAAAAAAAAAAAAAAAAAAAAAAAAAAAAAAAAAAAAAAAAAAAAAAAAAAAAAAAAAAAAAAAAAAAAAAAAAAAMAh6Q0jVhYby+cYR6Zvi+5LqylaV1/k244SvJfvLOLfuiuXxN9HC1az6i/XMi4jGUaHbefdxOgkXEaQoq/aW1Q+9ZGPicfx2mcViM97fZJP7Kk4x/hjwNeWcNjO3WlyVypqbdX+Ic2do/X2D/tWH/z6/zJOH0hTb+ztrn92cZeBw4yZvY0eE/sa1t2fGC5neQcVwOmsVh8t1fYkvsuTlH+GXAtWitf5LKOLrzX7yvg/jF/gRK2y60M45+/Jk2htihPKfV9uZ0AEPAaQqxMN5TZGce7mu5rmmTCtaayZbRkpK6zRkAA9AAAAAAAAAAAAAAAAAAMFa1o1orwSdcMp3tcI/Zh3y/Ia36xLBV7uvJ3zXmrnsR9prwOXWWSnJyk3KUnnKTbbbb+paYDAdL159n3KXaW0ui/8qXa4vu/p9sfj7cTN23Tc5Pq+S7kuiIuR6MHQxioqyRzEpuTu9QDZ6H0JfjZZVR81etZLNQj8evuN9LRGi8FwxV0rrFzrhmkn2ZR5fFmipioQlu6y7lmSKWFqTjvaLveSKcC2/rXQ64LB25dvX+cxdh9D3xcqp20TSzUGpyz7Fk88/gzD6trtQkvT9Gf0ifZqRfrb3KmSP1ffsue5t2Es3PdS2Ul1zyOgao6rxw8ViMRFO55OMXx3S/1eBq9dNZt5tYTDvzFwtsX22vsru8fHUsc6lXo6Ubpavhb5ob5YBUqPS1pWb0XEqmj8bbhpq2mbhJdnJrsa6o6ZqxrRXjVu55QxCXGGfmz74/kcqPcLJQkpxbjKLTjJNppo24vBwrrPJ95qweOqYaWWa7juwK3qhrAsbXsTyV9aW2uW0ukkvH/AILIcvUpypycJao6+lVjVgpweTMgAwNoAAAAAAAAAAABgiaSxkMNTO+fqwjn730XvbyRLZQf0kaSzlXhIvgvSWe/lFeL+Rvw1F1qqgRcZiFh6Lny8+BT9I42eJtndY85TefdFdEu5EU9IxkdbFKKsjh5Scm29TGRs9AaKljb40rhH1rJdkFz/I1xc9TfQYHG4peuk4xfZsV7S+syPi6rp0m465JepJwVJVaqUtFm/Q+Gs2nVV/QMF6OqvzJzjwcpLmk/F9So5EjCYWzEWKuqLnOT4Jf74Gx0xq1iMHXG23YcZPZexJy2Xlnx4HlJUsPanfrPmz2q62IvVt1VyS7jTF71G1c9XG3x76INcv77/D59hqdTtX/LLN7YvQVtZ/8Ackvs/mWnXHWFYOvcUtb+a4ZZejjy2vf2ETG15VJfT0tXr89ydgMPCnD6mtotPF/NCPrNrFXvY4GM3GMpKOIui+MIvnFPo+19Cqa1aG8iuSjm6bFtVvnllzj8M/qjTSefF8W822+rZdNJvynQ1N0vXpko59WlN1/ijONL6WVPdeTyfm+JrlX+sVRyWaV15LVFKABZ3Kkk6Oxs8NbC+t+dB55dGuqfczsejcbDEUwug/NnHNdz6r4PgcULx+jjSXGzCSfB+kr8JLwfzKramH36fSLVa+X8LvY2K3KvRPSXv/S/gA546kAAAAAAAAAAAAwzjGnsX5Rir7c807JKP3YvZj9Ejr2kbt3TbZ7EJy+UWziRc7Igt6U+6xz23qjtCHm+QBkwXtzmzBdtS8r8HjMIvXlGTj/5w2fGKKUbHQWlJYO+N0eK9Wcfah1Xv4EXF0nUpNLXVehLwdVUqqlLTR+TyJGqWL8mxtblwUpOqWfNbXBf/WR1HSOChiapU2LOE1k8ufPNNd5RtYdBrEr9YYHz4WedZXH1lLq0u3PmiVg9e1CuMbqpu2K2ZNNJSaXPuKrFQliXGrSWa1XFMucFVjhVKjXfVeafBr5wN7pLGVaJwqUEuC2aq8+Mpd/i2csxOIndZK2yW1ObcpP/AH0JuntL2Y23ez4RS2YV55qMfzNaWGCwrox3pdp6/r9lZtDGdPLdh2FoC66Xj5LoeiiXCdrza6rObs4ru4Ii6tau55YvFrd0Q89Rnwc8urT+z4mt1o0y8bdtRzVUM41J9nWXxy8DyclXrRhHSLu348EZU4PD0ZTnrJWS424s0wALC5WDI2Or+L8nxVFueSVkVL7suEvozXA1zgpxcXxyM6c3CSktU0d2MkXR928prs9uuMvnFMknGn0FNNXRkAA9AAAAAAAAANdrD/U8T/gW/wAjONHbNI07ym2v265x+cWjipebHfVmvI5nb668H4M8gyYLk58AA8BsNFaYvwctqmXB+tB8YS96LBPT2j8XxxmGcLOtlebz+Kyb+pTz0R6mGpzlvaPvTsyVSxlSnHc1j3PNFp8m0Lz396/u7Fn+g+0dMaMwnHDYeVti5Tm3ln75ZtfBFQBg8GnlKUmvM2LHtZwhFPvSz+9zZaZ09fjX6SWUE81XHNRXZ7/iaszkMiTCEYR3YqyIs6sqkt6TuzAAMjWAZB6Dserv9Tw3+BV/IjYkbRtO7pqr9iuEflFIknFyd5N+Z9Dpq0IrwRkAHhmAAAAAAAAAYON6fwnk+Kuq5JWScfuy4x+jR2Qof6RdG5OvFxXNbuzxi/FfIsdmVdytuvRlPtqg50N5f59uJSTYYNwpp38q4WTlY64Rs2nCKjFOTyTWb86P1NebLR86JwVN83BRt3sZbMmpJpKcHlm1nsxyeXQva3Z0y421t8t6HL0H1uF+F9Plj6XaMjZLbhOumqcK5reTeUZT2lsJpNvjCXwR8FoiezLOdcZx3uVTk9uSrz22uGXR830Nt5ZhoTe7ujFRhSqbHTvZ7uKk5xyksozcnn8j3+ssOt7KNsY7zytTj5O3O12OexLby4RylHh3EJVayySfL3y5k7oaDzbXNfv4iHi6IwoX9HTplVCUMVDNy32UW1J55JbW1HLIgaG0f5ViK6M8tt8X2RSzf0RNjfRCE7K7ZLeUuEsKq5L0jhs5t8mk/OXXka/ReNlhrq74JNweeXamsmvkzfTU9ySjrwbvrbx/GRoqOn0kHLTja2l/Dw78zpf/AEngt3u9yuWW3tS28+3M5vprR/kuIsobz2HwfbFrNfRl6/65wu72srdvL9ns9ffyKFpPGyxN075pJzlnkuiyyS7+CIuzo4hTl0l7ePf/AMuWG1p4SUI9Da/h3fLEnQWFrud0LOHosoS9myVkIxfzkvgzxfgsqYSSUZRrslbnzbV+7+fnI+OEtUYXpvJzrUYd7V1cvCLNtdj6MQoqct254eULZbEpKN2+jNvJdrjnw9olTc4zutLrx0X5v7ECmqcoWdr2/PzmaPE0OuWy8s9mE+HZOCkvoz5krSlkJ2t1tuChTGLccm9mqMeXwIuRJptuKb42IdRJSaWhgn6DwnlGKpqyzUpxcvux86X0TIJdf0daNzlZi5LgvR1+/nJ+C+ZqxdXoqMpfLsk4Gh01eMOfki+mQDkzuwAAAAAAAAAAADBE0jg4YiqdM/Vmsn3dj+ZLB6m07o8lFSTT0ZxfSOCnhrZ02LzoPLPo10a95GOoa2aAWNr24ZK+tPYftL2WcxtrlCThJNSi8pRaaaaOnweKVeHitf2cRj8FLC1Lf5ej/HoeAASyvAAAAAAAAAMmDJ6rrlOShBOUpNKMUs22Ha1z1JvQ+2j8FPE2wprXnTaWfRLq37jr2jMHHD1Qph6sFl731fzzNTqnoBYKvbnk75pbb9leyiwnN7QxfTT3Y9lHY7KwLw8N+faf2RkAEAtgAAAAAAAAAAAAAADBXdZNWoYxbyOUL1yllwl3S/P/AILEDOnUlTlvRdmaq1GFaDhNXRxjHYG3Dzdd0HGS7eT70+pGOy4/AVYiOxdBTj380+59CnaV1Fks5YWea/d2c/hJc/iXlDacJ5VMn9jl8XsWrTzpdZff+lLyBOxmh8TRnvabIpfaUdqP8S4EIsozjJXi7+TKacJQdpJp+KPIMjIyMQDY4LQmKvfo6Zte01sR+cuZZtF6i8pYqz/11/jJ/gRquLo0+1LlmyZQwGIrvqRy73kipaO0fbiZ7umDlLr2RXa30Oi6uatV4Jbcsp3tcZ5cI90fzNvgsDVh47umEYR7Eufv7SUUmKx863VWUTpsDsqGHe/LOX2XkZABALYAAAAAAAAAAAAAAAAAAAAAAAAwyLfgabP2lVcvvQi/ElmBoeNJ6mvWhcJ/Z6P8mH5EijB1V+pXCP3YRXgSAeuUnqzFU4LRLkEZAPDMAAAAAAAAAAAAAAAAAAAAAAAAAAAAAAAAAAAAAAAAAAAAAAAAAAAAAAAAAAAAAAAAAAAAAAAAAAAAAAAAAAAAAAAAAAAAA//Z;fontStyle=1" vertex="1" parent="1">
          <mxGeometry x="490" y="220" width="200" height="200" as="geometry" />
        </mxCell>
        <mxCell id="BlBGb8jEa6n90FYuV4Tu-2" value="Child" style="shape=image;verticalLabelPosition=bottom;labelBackgroundColor=default;verticalAlign=top;aspect=fixed;imageAspect=0;image=data:image/jpeg,/9j/4AAQSkZJRgABAQAAAQABAAD/2wCEAAkGBxAPDxAQDw8VEg8WFRIVEhUQFREPEBISFhcWFxkWFxgYHighGCYlGxcZJTEjJiorLi8uFx8zODMsNygtLisBCgoKDg0OGhAQGisgICUtLS0wLy0tLS0tLS0tLS0tLS0tLS0tLS0tLS0tLS0tLS0tLS0tLS0tLS0tLS0tLS0tLf/AABEIAMgAyAMBEQACEQEDEQH/xAAbAAEAAgMBAQAAAAAAAAAAAAAABAUBAwYCB//EAEMQAAICAQIEAwMGCwUJAAAAAAABAgMRBCEFBhIxE0FRImFxMoGRobGyBxQjNEJygpLB0fEVNWLh8CQlM0RSU1Rzg//EABoBAQADAQEBAAAAAAAAAAAAAAABAgMEBQb/xAAqEQEAAgICAgEDAwQDAAAAAAAAAQIDEQQSITETFEFhBTJRIjNCgSMkNP/aAAwDAQACEQMRAD8A+4gAAAAAAAAAAAAAAAAAAAAAAAAAAAAAAAAAAAAAAAAAAAAAAAAAAAAAAAAAAAAAAAAAAAAAAAAAAAAAAAAAAAAAAAAAAAAAAAAAAAAAAAAAAAAAAAAAAAAAAAAAAAAAAAAAAAAAAAAAAAAAAAAAAAAAAAAAAAAAAAAAAAAAAAAAAAAAAAAAAAAAETIEgQAAkAMBAEsgAAAAAAAAAAAAAAAAAAAAj6zVwphKyySjBd2/sKXv1GjhXE69TSrq37O+U9nFr1Ipki0bhGzh/FqNRKyNNim4NKWM439PUVy1tOoNp5okAwBq1NyhFyfZImI2radQhcM4j4ixPaf1P4GmTHpljy7S69VGVk6/0o4z78rJnrw0i3lIIXAAAAAAAAAAAAAAAAGGR+RyENRPiM9Rp7a3Gnbpe2apxeN/Vv8Agzg7zmmaW9IX2l4NRVRKiMPycliXrLPm2ddcVaU6x6NIPL/LFWjlKxSc7HlJ9ko+mEUxYYpOyIX50JZAwBiST2Y2iUOnh8YT6l28l6M0m8zXTKMcRO3q3Rp2wsWzWer/ABLBEWnrpaaR27JhRoAAAAAAAAAAAAAAAAIum1kLJWQi94NKXzr+q+YyrlrbcR9hz3H83Ra028ev8qoLEnPbDfu/kedyLd/7f+xa6urU/inTCa8fpWX2z649512jJGHUexG5Sovrpau+S3mClnrS3zn5xxIyRX+pEL860o+r1MKYSsseIRWW99hSk2lS94rDlFzdKVyajintjbqfv93wO/6TVfy86Odu34ddRdGcVOLzFrKZw2rqdPSraLRtXz4xBXKvy7OXpI1jDaa9mX1FYt1SeIa6NMVKXm0l87WfqKUpNpXvkisbS0UaMgAAAAAAAAAAAAAAa75NRk13SeDPJOoHOaa1VJ3vd27NbrGPl9veeNXL8e8k/wCSTSQWk6rU+tS2rS26o9236EY5+n3efO/Q6DS6iNsVKL2+xnsYcsZadqo9N2TZHr2oeaOY46GqNnhuxzbUMbQz75eX+RvgwTktr05OVyow03rbjuBc5WT1Elq5KVFnsyWF0V98YXp6noZuJFabr7ePg/ULTk1k9SsZcq2rU9Ff5u/aU3v0x9PezP6qvx+fbpjh2jJ49O00WjhTWq4fJXr3ee5597Tady9fHSta9XNvgU/xnw1nwvldXpH0+J1/NHTbi+ntGRc8Z4X48a0v0ZLP6nZnPjy9d/l05cU2iPwtUjFvDISAAAAAAAAAAAAAIHmSysEWruBxMeYKPGho7n4dr9jow8eJ1SWYv4/Uzgy8S37dbhHZvXMOksvWlhfCzPsRhFvqyu7WOz7jJx776zG6p7vF/POl07VVcJzUX0ybXhpYe733fn5HrYOF1pqGE5ohzv4TOK62FsYxua0dkVKvw8R6tl1Jy7vv9Z1cSlI9uPmXv9mrkXXw1dFnC9Q/ZknKh+cZbyaXw7/SaZ6/HaMlXPgt8tZxW/0k8N5L8Hqt4jbGqmLeye88Z812+0vbmTaNU8ywr+nVpM2y+IdTy7zVptRa9NVFwjFJUuX6aXdY8tjjzca9a9pehxebjvb44/06fJy6ejMwrNBxyi+6ymuXVKGM+j9ceuP4mtsFqVi0/dzYuVjyXmsT5haGXp1fbwyAAAAAAAAAAAAAAAAAcD+EnlWzUKvV6TH4zXKLw2oqXbfL7PZfQXx2isqWhwXF+Da2nXV6zT6azqk43dMYSl4dn6cHjt7WfmZtjvWYmsstOr5k5bv1F0NRpaJdN0VOUJYrdc8LqUurGN9/pNsOatY1ZTJjmfS8o5YlfoYaPXzipxlmp1yTnGK8t/8AX0GNsur9qrfFF66svOCct6XRL8hUlLznL2pv532+Yyvmtb2vjwUp6VH4QeX5aulWVZd1WWo74nF4yvczbiZulvPpzc/jfLTce3Fct8uXyxqbp/itEGpeJPabx/0p/a/rO/NyazHSsbeRx+HaLd7eIh2PFeKf2hornoLH1Qftxx0ynBZ7eayt/mwcWKkYskd4ejnyfNimMU+UPkHlqyElqrsweH4cOzaa7y/ka8zkxf8Aphh+ncG1bfJd3x53p7k/hkAAAAAAAAAAAAAAAAA8TipJprKezT7NehA+fcV4RrdBO1aO+a0dvyXtY9HYu3syz1Qb292fcXjr7UtCg4Fzbq/Gu0HFLrK3Z7ELUowlRYs4eYJZT2N5pGu1WcTPqVDZoOJaTXrELZ6muWYzSnapJ+efRo2i1LV1LGYvFvD7lwvWTtohbdVKmbjmcJ4zB75OG1dW8OuLbjfpy3G/wk6On2aE9RPz6cwrX7TW/wAx0Y+Ne3lzZOVSv5VnNWht4tXTqtBY7a9oypbUfDltvv295tgvXFM1u5OTityIiaSu+SeUHoc222dV0o4cYtquK74/xfEy5HJ+XxDficP4fMuvwcu3eAZAAAAAAAAAAAADAAAAwQAGGiUKrifC7ZVuOl1L08s5i+iu6K92Jp7e4tW3nyiY8Obo0nG5Rnp9TYpRb9jVaaVVVlfxhhdS+s03TfhTV9KjhnKfG6dX4y1cW0/lWTnZGyPmnDyLzkpNdQzil4ncuk1XIOiuu8e2tqT3shXJxqlP19Stc94jUJnj0tO5dHoNDVRBV01xrgvKKx/UxtaZ+7aKVrGoSiFggCUeZAkIAAPQyAJGCBkkAAADlqNZqtRfdCu5Vxg8JdMXtlrzPKrky5MloidM4m0pn4lrv/Lj+5H+Rr8fIj/NPW38vXLPELLoWK19UoyxnCWfoLcPLa+4t9ilpncN1XGq5auekxLxIxUm9unDSf8AE9P4bRj7ywjlVnNONv4vxCOlpndNNxjjKjjO7S8/iRjp3tqF+Rm+Kk3b9LerK4WR7SipLPfDWSlq9baaUvF4iYVPFeZqNNdGmzOXjqcVmME+3Ub049717Q5cvNpiv1ldxllZOfX8uuttx2Vmg4zC7UXURUlKrHU3jD+BrfFNaRb+WGLkxkvNP4Whlp0qyjjEJ6q3SpPrrSk3t0vKT/iazh1SLuavJrOWcevSDrOZ/ClNPS3uMW8yUF0YXnnPY0pxu33YZOb0n9rTRzfGxKUNJfKL7OMMp4223LW4vWdTKuP9Qm+utfCw4px6GmnWrYSVc+1mE4J+j80ZY8E3iZiW2XlRjmO0eEjifFatNV4tkvZ8sbuTfZL1K0xWvOmmTkVxxuXl8TUdP49lcoLZ9Lx1pN4Xn8DHPeMUTK+PJNq9pSLNZGNXjS2h0qXvwyk5YindptBhx6MknGi5p9moZTMI5cTG0dkjh/FYXSnBKUZxxlTXSzTFyK5JmCLI1vH4wTcqbUl3bhhGduVFY3JNnujjSm44ptw8YfRtv59y1OT3IlanSsySABkT6HHcH1tdGp1Ltl0pt4znfEmzx8OSMeW3aWVJ0l8N5hj12xvsXTn8nJJpNemxrj5kTaYtJF9M8m/Jvfk5rBbgRvtKcc7VtV8a+N6iVklCPhx3k+lfJr9T6LW+NER7ePForzpm0+E3nTiFM9DdGF0JSfRhRlFt+3F+TM+JS0ZYmYdH6hmpbBMRKdDiEdLw+u6faNVeF5uTisL6TLp8mWYht8sYePFnJ6WF8qtR4+httsv3lNYWF3hhPtg7p6RMRFtaeTWuS1bTam5le8k8Tm4S0l6cb6ksKW0nB9vo2+o5+XiiJ719S7/07Nad4r+4Q+Bamuvievdk4wTax1NRzv7y+Ws2w00y494pyr9p06uriNE5KMboSk+yUotv4HDNLRHl6sZqWnUS53hf99az9SH3azryTH09YeZi39bdfcdX+y6j/wBdn3Wc+H98O/lRHxWlXci/3fR/9PvyNOXP/LLD9N/88LfXaOF9cq7IqUH3TMKWmk7h15cVb1msuM5Q4dGzU3xslKyOmko0qbzGOXPfH7J6HKydaVmPu8fg4Yvkt289XTc0/mlv7H34ng83+1L2rx/S08VX+7n+pX9sSmWP+uT+1u4NrKlp6k7IpqEcpyimi3HyU+ONlZ/pe9DrabL7Y1xXWknKaUWpJpea7/5F8WSk2mtYTHmWOZ/zS39n7yI5cbxSX9JXC/8AgVfqR+xGmCNY4TVLN0gAABCu4ZRNuUqouT7trdmFsGO07mETCr4hwFO2qdNcelP24vZSRyZeFXtE1hWaeV5RRGtdMIqK9FsjupStP2wv69I2r4VRdLqtphOXbMkm8HRXJavqWF+PjvO5jy0Ll7Rr/lq/3UT8+T+VPo8P8Jep0VVqjGyClGLTipLKTKRe0epa2xVtHWYSMFWkRpHehqdqt8OPipYU8Lqx6ZLd7ddb8M/hp27a8o9/A9LZJznRCUm8tuKbbL1zXiNRLO3ExWntryzp+CaauSnCiEZrs4xSa8iJzWmNTKa8bHWdxCRXo642StUErJLEpY9ppY/kV7zMaaRirFu33bba1KLjJZi000+zTKxMxO1prFo1Pp40umhVBQriowXZR2SzuTa02nclKVpGq+m4j7p+yPp9FVVKcq4KMpvM3FYcnv3+l/SWteZ1EqVxUpMzWNbe7qo2RcZxUovunumZ2pFvEtJjy9eFHp6cLpxjHlj0HWvXUmkT+yNP/wBmH7qMvp8f8K9W/TaSurPhwUc9+lJZL0pFPUJiNPd1UZxcZJOL7p7plrV7RqU+3qEFFJJYS2SJiuo0PRIyAAAAAAAAAAAAAAAAAAAAAAAAAAAAAAAAAAAAAAAAAAAAAAAAAAAAAAAAAAAAAAAAAAAAAAAAAAAAAAAAAAAAAAAAAAAAAAAAAAAAAAAAAAAAAAAAAAAAAAAAAAAAAAAAAAAAAAAAAAAAAAAAAAAAAAAAAAAAAAAAAAAAAAAAAAAAAAAAAAAAAAAAAAAAAAAAAAAAAAAAAAAAA//Z;fontStyle=1" vertex="1" parent="1">
          <mxGeometry x="60" y="220" width="200" height="200" as="geometry" />
        </mxCell>
        <mxCell id="BlBGb8jEa6n90FYuV4Tu-4" style="edgeStyle=orthogonalEdgeStyle;rounded=0;orthogonalLoop=1;jettySize=auto;html=1;entryX=0.5;entryY=0;entryDx=0;entryDy=0;" edge="1" parent="1" source="BlBGb8jEa6n90FYuV4Tu-3" target="BlBGb8jEa6n90FYuV4Tu-2">
          <mxGeometry relative="1" as="geometry" />
        </mxCell>
        <mxCell id="BlBGb8jEa6n90FYuV4Tu-5" style="edgeStyle=orthogonalEdgeStyle;rounded=0;orthogonalLoop=1;jettySize=auto;html=1;" edge="1" parent="1" source="BlBGb8jEa6n90FYuV4Tu-3" target="BlBGb8jEa6n90FYuV4Tu-1">
          <mxGeometry relative="1" as="geometry" />
        </mxCell>
        <mxCell id="BlBGb8jEa6n90FYuV4Tu-3" value="Parent" style="shape=image;verticalLabelPosition=bottom;labelBackgroundColor=default;verticalAlign=top;aspect=fixed;imageAspect=0;image=data:image/png,iVBORw0KGgoAAAANSUhEUgAAAZ0AAAB6CAMAAABTN34eAAABLFBMVEX///8ARDg/PkAtLC4zMTTQ0NE5ODqqqqs2NTc7Ojx0c3R6eXuDgoRAP0Hx8fIAQTUAOSvo6OgANidmZmf23HDy1nXszXzfuozOoaAAPS/u0HrbtJHLnKTBjbHpyX/lw4TXrpbTqJrHlqm5uboAMSHnxoLRpZ3Ekq2Li4z02XLw03fkwYbhvYndt47ZsZPPop/75Gn85WjJmafCj6+/irRKSktWVVfk6umWq6fFlKxUU1W8hrecm5y3xsPJ1dJSdm/9+ewXUEXp1dSKop3MzMwiICN2lI48ZVwcGh5nh4CntrJJdGv/++X+9Lv97Y/86Hf+75r88sv24p/47M316NHv27jpzqIpW1HgwbDv1Y3x5ODs0ZjburToz7DRqLDn09jPqcLx5/Ddwcjcwdp9PWn4AAAMyElEQVR4nO2d+2PTthbH47zTNrbj8jKvsdZAee/SpQ7QvEiakJTCussW7hhjG////3Bjxw/JOrJsWW4g9veXjURSbH16jo6OZLlQyLVh6s0nk3lv3VeRi1Rvfqroqq6rqtRZ97XkwtSbSLqmSCsp6sIMFnh79u79+3dnb9dxcdmWOVrouotmxUfH3dvgl/8s9dNS787XdJEZVbevqBgaG48kI0XOXTaXlnpwNljXpWZN8nyq6kE0ltSZXwiDY/H5dbC2C86S5guNMBtHhjf0vMXgPHjw4PKDy2frvOpsqDelslkaz8gt9i4I5/LDhw+v/3edV775MmchbJYjz9Qpdw7Cuf7w02CdV7/hmkvgeONLdwr+AsK5fuXKld/WegMbLLNvhBmOPfCsSg7e0+Dcvp2bTyrqsgzHp/OWDuf23bsf1nsfG6kO03CsGc+qrE3HgXPZgbNis4Rz927u3URrZjDZLIcdZ8Jj0SHhrCznh6V+X++9bJrkhRoBjmR0V8UHFMu5a8N59Ojx48Fab2ezZA7ZQ47l2BS3wjsGnMdXB2u8nc2SKbGHHNt0vDTo2U9OPHAZiwd8OFdzPIJkDiPCmXhVBkw4T54M1ndHG6SIcBQETqFwfgmE88iHc+PGYF13tEGSo4w5im4suli1s0sknEcYnBtP13RHm6QFC46ia9pi0g3WO6fAuerBeZrjSao+K7NmDCddGao5+BWP1jzD8eDc+XjRd7NhGmmhZqMpsx6Ixtbg/H/X/TkoCefOndcXeCubp14YHEUbduhoVvrw6UoAzhMHzh1LP/5xIbexmZLDJjoqm42lD59u0+D8uFSUJnKBChl0dGUStWM/fHLgPCbh3Psz1RvYZHXpmU91Gmf3528/oHCeInDu3cuHHj7R/ZqiTtjVUX2gwnl2LfdtXJrQ8tKKRMxuWBr8/thiA8C5lvs2HvVofk1f8Oxp/wxbzrVrN/O4jUNTil/Tp8SG6Uj6TMB5ZsO5+ZfgC8+CaCGBPuUdKD7DcG4+/yL0wjMhiukoQ/5R/CMM5/lzgZedDVFMR9H53NpKH1049zA4e7nxxBTFdIwkcAoFGM7enqCLzoooAZsxT9as7AVrKJwX93PjiaUZmMPR+0nb/cOHc9OD8+L+CxHXnBmZIBxFTz6v/xOCc//wHwEXnRmNwDSBltCvWZIxOHsOnMO/k7ecGclgTOA9/5FIr58BcG7d4jWeCqZWzCLoF1idMfLFWKa1xfhhUi3w91q0Vj1hPgtedNPEHErgxAM4nJ9544Ktk5Kvk12ghNxESpTe1NDvdpHa6OcHJ2ijSN8clSCV6+3d4yiAtv12T8BPKcLaBvOfyUOClV5DcLjpbFeLiEpAF+2X0RJljM6WX7uJfDxGqjSaaJu7jSKsRrmxwx6Vd+pehTr4KUXYbYGOTRV1nsdfAJxXYuiUj8kSW3iJCHRabYRBeYxWoNKxSjb3WVcrgg4YsSmnEfuLqS8kHFF0im2iQCvQhRHobCG9FeAdRqfYKGGNAxJBpwMNO2rsNR2aZCdBsGRzf8nGhvOKNyoI0CmNgwWOMccWhU4NqVEPjGShdJY/z7AeEXSg7QTKMHqPsfSvbzkunJ952wrQqW4HCxzh/cmmU0FaxAedApNOoxk+9gigIy+AYUePuVYdJpmA8+orb1sBOsVyoDsrgTtn0pFfIgAIU2TQKTJ8mwA6PSgm0EWe8fWvDefQh/OKOwlB0Al0T/DOmXR2EL9GBhksOtWt0KsVQKcLDDvKQuTmDHnvPg6HP5ETpNM4wn+pGbhPFh00/q6S0yeUTmOlOtq3jXZoP9HoNFxht+ILoQOlcURNdhzJLw4P3WgtiV8j6RRL2KQfn+yw6bTQ/imTPY3QaRdkW5UD7E+fg47sa6uBFPA/RpqAggJN8OF48t+3RFgOQKe+g359FPREDDpHSHMnRPyH0fGDvP2SX6nBQQe+oDLcBDQXFTrs2PpyuEKTxHAKAB3sr7dFePRwOgfooHMA/BxIR277tcKDtuR0ZOBZN2WYbE0U1D9fvn79mnTpgKSD9v9xPDpjxAiAQadAoYN82jhKmY4JRGxi0tNpiKTTQLo1GBOE05HRmQ7solh0cL9KKDmdHjQXFRsUCBTg2cpeXDAOxgThdLAMDjDoFCh0EP9J5iowCaADhWwzsOg3IIBO/SDkyxA6NcSvQelUS1jM5qjihx7VI7iaq+R0xsB0R2SmQKwAAN6cQy4R39HptFtI6TptUonazoGt7d2m/1m5QqnnKDkdaDLqH1r4rQmg4+Uia6RjC7EdpOMbbdpSGjobrduqItUo7tBXOrbzfdA5cv7rplM8j4NEvFQ6RbTfqb0ckslplF4yLEfIuAPRSemkdtM0E2aIEDqNmnvvq8xH68TtiGPE91DpIHDoqUw6ncYuc+0tNTpp2I45mQ4lZTFLtHCE0Kl7I8dqTPcmO+2K7+JSpFPjXbmGLyhGzJZCVNBRVEWxD6OI9ZRjQAidUsFdcW68tL5yO7K6jQz4UehwerZyk7U0+t1E1PKpf1aiksBxYnQ8a7GGZ2/iX9qXo9BBs8+RogJSJWLtL6B0ZqOCU9TWjjnsb0Dj9pwYnZbrway4wPumKUexnSZKKrhg7QmL2cq26ki9cvjyzveSyZngg1vwDRfRhdEpeOuazZZnL9WdQhQ6bRmNvyPMRqvHNVvHW0hQzbU2Cl8Qhc4FZEGJyEPnxY/T8WY45Zq3slMaR6LTxBYCImRy/NUfJFmQ/goCtK1AEUtnQnhP3t1yOB0/4/XS68e2HJFOYRvNaFdZWVBkB8OY1n5QKa3vaML2S1kC9pXwRoU4HWS1zf0fK+sWkU4BXTmGU2YwHWR9PHxjgQA60LM7YoM2k5xSKQu+pgJ0yOSNlTWOSqeC+TbG6htKB/mjCF3gEUCnA4TUYsMCYDsj7365AJ1WMOK1U6JR6eBbExkr17DtNF6mTAd+AkHkwANYJ++z3AE6xITEXk6ITKewi05PS6G7PhA6SDwRvilHAB0opBbyZJX3A2BUyNdWkE5wE469RSc6HWzXNTD0QDGbXEOiidRtBwwLRLo2aI2Cd74bpNPCF6tXOZ3odHC65NCDmmbbURML9dKOCuBj2QTG1FDYwWubQTq4b3JmlTHoYHtB4+/ULdYp01incQF05uAzCMLS1KDn5E0WEHRw17Z63CoOHRnbAteIt8sdfr7Llwg68PM7kqi9utBeU+4DXgg6mGtz9u3GoVOooACC+6ZYdOrheVARdOCHekWtwEH75fjTrAQdLO/spMti0cHnTIGhh/WESDH86VERdIBEi+S/+iipoOkUfy6CpIO6NsfPxKOD7ZwqlrElz3A6VfrC0EpC6MAzHjEjD2g6/FlWkk7L30XgPpAQk06ria71RHuq1ypZOmJtLBBCB3y+aolHxMgj+Hlukg7ykYsiJh08W40NPSEr1+U2c2lUDB3YtQlJtkFre0mSrFulsqs3zkfjE+8T58++9cYrdFKj1MY6Ywf5vHyCDD276Be+SvV2lG0FhW3v0tDzCtALKtddlcAClihnuBvJn0SATxHhf3Zrv+bL+UgO+6RWYdQmKiwlgxV87Y8r0W6gsu8LLFA78EVv5hR0bcnOzrMEH8AT9wDlrAuckCZYwnREOfYtMfSMCYysltIS/ZXLOtiq8D0lGy/wRImljCRz0in8XgVBxyNlSNRj9g3+NexT+HD43HTii2Y8/NFvn3Jyv4BIMHuiviqRM9lPg5ObDo/o73fheTzenNLeeaHmARuPTqnvRlJncWePPeqrF/k36WZbZsjLkWK+RqQDh9JSspP7s62QFyYqyih6r5p9lfr+uAQhYNYFp6pd84nYr/JIor8+Ls/h8CvEt1kvtOxHcG/yfEE3HMFHV2VN8zA8ks7kY46GWtg7zPMsQSLNaHGwy2c6ogbEcnemhNiNlPylF5kX6yXkiqr2R+TblGVzPhsajLrqN3uCyPciaFctAchQ+pNOzznpzex2RrOFoVGDaFc652MHuXz1wt6m7BPSVcMwln5MMwxN1ZlkJJEb5LKsbvjYwStF6FMN2dU8DTw5HFFKwXpyOOLUizKOxJGexkmWmVVPEYpHzVMEQmUuwqelsaT1cziCNQtN6sSQYuQrOuI1D82YRZau52sGaag3FODdjNM8HkhH8sxIaD66ntIhibmW6oYvCDCkGP3ccNKU3OF2b4oWdTU1F7fMicIzN1XUYYydCLm41ZtJcVM7iirRV+lyiRVrQTqARleHk5zNBUqeTxmr0h4bTep3c5920ep1FgrDghRdk6bz3GzWI3M+lVQVDhKWZHTpNEezVsm9zmyxHFns5Wpbuv0PZTGb59uhvg31uvPRbHY6XSymp7PRvNvLTSZXtvR/XZXgWyrJNnYAAAAASUVORK5CYII=;fontStyle=1" vertex="1" parent="1">
          <mxGeometry x="190" y="-70" width="413" height="122" as="geometry" />
        </mxCell>
      </root>
    </mxGraphModel>
  </diagram>
</mxfile>
